<svg width="80" height="81" viewBox="0 0 80 81" fill="none" xmlns="http://www.w3.org/2000/svg">
<path d="M44.6503 11.0659C48.6846 9.45271 53.2894 11.0834 55.4094 14.8759L55.5647 15.1538C56.7244 17.2285 58.6869 18.7344 60.9911 19.3176L61.2997 19.3957C65.5117 20.4618 68.2786 24.4878 67.7645 28.8021L67.7268 29.1182C67.4456 31.4783 68.1481 33.8501 69.6694 35.6763L69.8732 35.9209C72.6541 39.2591 72.5262 44.1425 69.5744 47.3307L69.3581 47.5643C67.7433 49.3083 66.9176 51.6401 67.075 54.0117L67.096 54.3294C67.3837 58.6647 64.4098 62.5403 60.1478 63.3845L59.8355 63.4464C57.504 63.9082 55.4654 65.3093 54.1987 67.3204L54.029 67.5898C51.7135 71.2662 47.0296 72.6536 43.0853 70.8315L42.7963 70.698C40.6386 69.7012 38.1658 69.6364 35.9589 70.5189L35.6633 70.6371C31.6291 72.2504 27.0242 70.6197 24.9042 66.8271L24.7489 66.5493C23.5892 64.4746 21.6267 62.9687 19.3226 62.3855L19.014 62.3074C14.802 61.2412 12.035 57.2153 12.5491 52.901L12.5868 52.5849C12.8681 50.2248 12.1655 47.853 10.6442 46.0268L10.4405 45.7822C7.65955 42.4439 7.78742 37.5605 10.7392 34.3724L10.9555 34.1388C12.5703 32.3947 13.396 30.0629 13.2387 27.6913L13.2176 27.3737C12.93 23.0384 15.9038 19.1628 20.1659 18.3186L20.4781 18.2567C22.8096 17.7949 24.8483 16.3938 26.115 14.3826L26.2846 14.1133C28.6001 10.4369 33.2841 9.04944 37.2283 10.8716L37.5173 11.0051C39.675 12.0019 42.1478 12.0666 44.3547 11.1841L44.6503 11.0659Z" fill="white"/>
<path d="M49.8585 31.4492C50.5277 30.557 51.7934 30.3767 52.6856 31.0458C53.5778 31.7151 53.7591 32.9807 53.0899 33.873L40.6885 50.4072C39.0195 52.6326 35.7506 52.7529 33.917 50.7197L33.7442 50.5156L26.1651 41.0419L26.044 40.874C25.4891 40.0143 25.6644 38.8571 26.4805 38.204C27.2969 37.5509 28.4648 37.6338 29.1817 38.3642L29.3194 38.5195L36.8985 47.9931L36.9581 48.0517C37.1095 48.1693 37.3356 48.146 37.4571 47.9843L49.8585 31.4492Z" fill="#141615"/>
</svg>
